<svg width="491" height="128" viewBox="0 0 491 128" fill="none" xmlns="http://www.w3.org/2000/svg">
<path d="M79.3401 2.99313C81.4908 2.99313 82.9428 5.18952 82.1003 7.16831L60.7471 57.3221C60.4383 58.0473 60.4274 58.865 60.7167 59.5982L84.9033 120.906C85.6799 122.875 84.2289 125.007 82.1126 125.007H59.8512C58.6136 125.007 57.503 124.247 57.0548 123.093L37.7484 73.3964C37.3002 72.2428 36.1896 71.4828 34.952 71.4828H30.6656C29.0088 71.4828 27.6656 72.8259 27.6656 74.4828V122.007C27.6656 123.664 26.3225 125.007 24.6656 125.007H3C1.34315 125.007 0 123.664 0 122.007V5.99313C0 4.33627 1.34315 2.99313 3 2.99313H24.6656C26.3225 2.99313 27.6656 4.33627 27.6656 5.99313V48.2352C27.6656 49.8921 29.0088 51.2352 30.6656 51.2352H35.7093C36.9207 51.2352 38.0132 50.5067 38.4788 49.3884L57.0292 4.83989C57.4949 3.72163 58.5874 2.99313 59.7987 2.99313H79.3401Z" fill="#AEF75F"/>
<path d="M133.512 0C148.549 0 160.003 5.34067 167.874 16.022C175.863 26.586 179.857 42.5493 179.857 63.912C179.857 85.0399 175.863 101.003 167.874 111.802C159.886 122.601 148.432 128 133.512 128C118.593 128 107.139 122.718 99.1507 112.154C91.2798 101.473 87.3444 85.392 87.3444 63.912C87.3444 42.784 91.2798 26.8794 99.1507 16.1981C107.139 5.39936 118.593 0 133.512 0ZM133.512 20.2476C127.404 20.2476 122.94 23.5928 120.12 30.2834C117.418 36.8565 116.067 48.066 116.067 63.912C116.067 74.9454 116.655 83.6314 117.829 89.9697C119.122 96.3081 121.001 100.886 123.468 103.703C126.053 106.403 129.401 107.752 133.512 107.752C137.742 107.752 141.09 106.403 143.557 103.703C146.141 101.003 148.021 96.4842 149.196 90.1458C150.488 83.69 151.134 74.9454 151.134 63.912C151.134 47.9486 149.724 36.6804 146.905 30.1073C144.203 23.5342 139.739 20.2476 133.512 20.2476Z" fill="#AEF75F"/>
<path d="M270.612 2.99313C272.269 2.99313 273.612 4.33627 273.612 5.99313V122.007C273.612 123.664 272.269 125.007 270.612 125.007H248.947C247.29 125.007 245.947 123.664 245.947 122.007V27.2971C245.947 25.6403 244.604 24.2971 242.947 24.2971H223.572C221.915 24.2971 220.572 25.6403 220.572 27.2971V122.007C220.572 123.664 219.229 125.007 217.572 125.007H195.906C194.249 125.007 192.906 123.664 192.906 122.007V5.99313C192.906 4.33627 194.249 2.99313 195.906 2.99313H270.612Z" fill="#AEF75F"/>
<path d="M370.139 122.007C370.139 123.664 368.796 125.007 367.139 125.007H347.059C345.403 125.007 344.059 123.664 344.059 122.007V77.9972C344.059 75.9968 344.081 73.947 344.124 71.8478C344.201 68.1262 337.553 67.0319 336.621 70.6358L323.143 122.758C322.8 124.082 321.606 125.007 320.238 125.007H292.962C291.305 125.007 289.962 123.664 289.962 122.007V5.99313C289.962 4.33627 291.305 2.99313 292.962 2.99313H312.865C314.522 2.99313 315.865 4.33627 315.865 5.99313V50.8831C315.865 59.6864 315.63 67.5507 315.16 74.4759C315.019 76.5567 318.366 77.1406 318.888 75.1215L336.958 5.24208C337.3 3.91804 338.495 2.99313 339.862 2.99313H367.139C368.796 2.99313 370.139 4.33627 370.139 5.99313V122.007Z" fill="#AEF75F"/>
<path d="M490.812 121.83C490.914 123.553 489.544 125.007 487.817 125.007H467.856C466.224 125.007 464.892 123.703 464.856 122.072L463.863 76.5887C463.511 65.4379 463.334 54.5805 463.334 44.0165C463.334 36.6217 463.393 31.1637 463.511 27.6424L450.348 109.455C450.114 110.909 448.859 111.978 447.386 111.978H426.574C425.11 111.978 423.86 110.921 423.616 109.478L409.765 27.4663C410 34.0394 410.118 43.1949 410.118 54.9326C410.118 64.4402 410.059 71.7762 409.941 76.9409L408.949 122.073C408.913 123.704 407.581 125.007 405.949 125.007H386.168C384.44 125.007 383.069 123.55 383.174 121.825L390.211 5.81149C390.307 4.22808 391.619 2.99313 393.205 2.99313H421.994C423.475 2.99313 424.734 4.073 424.959 5.53611L434.316 66.2427C434.843 69.6583 439.776 69.6226 440.253 66.1998L448.701 5.57905C448.907 4.09652 450.175 2.99313 451.672 2.99313H480.948C482.536 2.99313 483.848 4.23059 483.942 5.8158L490.812 121.83Z" fill="#AEF75F"/>
</svg>
